<svg width="200" height="51" viewBox="0 0 200 51" fill="none" xmlns="http://www.w3.org/2000/svg">
<path fill-rule="evenodd" clip-rule="evenodd" d="M52.4526 34.4685L51.35 0.849976H45.3607L44.2545 34.5755L26.0929 5.48073L20.8968 8.48419L34.6425 34.3698L8.11017 20.2478L5.1102 25.45L31.9148 42.221L0.566406 43.3126V50.9079H43.7637V43.4159H43.7776C43.7684 43.3038 43.7637 43.1904 43.7637 43.0759C43.7637 40.819 45.5932 38.9895 47.85 38.9895H48.1807C50.4375 38.9895 52.267 40.819 52.267 43.0759C52.267 43.1904 52.2623 43.3038 52.2531 43.4159H52.267V50.9082H95.4648V43.3129L65.1448 42.3299L92.1238 25.4497L89.1239 20.2475L61.7641 34.8099L75.7433 8.4846L70.5472 5.48114L52.4526 34.4685Z" fill="white"/>
<path d="M92.5121 0.849976H93.2872L93.9828 2.99029H93.9927L94.6982 0.849976H95.4634V3.65349H94.9566V1.48303H94.9367L94.2312 3.65349H93.7344L93.0388 1.48303H93.0189V3.65349H92.5121V0.849976ZM90.6937 1.3122H89.7695V0.849976H92.1345V1.3122H91.2203V3.65349H90.6937V1.3122Z" fill="white"/>
<path d="M104.498 14.9175V3.74219H100.949V0.849976H111.563V3.74219H108.034V14.9175H104.498Z" fill="white"/>
<path d="M118.833 9.11344C118.833 7.59847 118.303 7.08692 117.262 7.08692C116.063 7.08692 115.376 7.69684 115.376 9.09376V14.9175H112.232V0.849976H115.376V6.29993H115.415C115.945 5.37521 116.928 4.52918 118.716 4.52918C120.661 4.52918 121.977 5.80805 121.977 8.11002V14.9175H118.833V9.11344Z" fill="white"/>
<path d="M128.189 15.252C124.928 15.252 122.963 13.0287 122.963 9.88076C122.963 6.92952 124.81 4.50951 128.189 4.50951C131.608 4.50951 133.337 6.53602 133.337 10.2546V10.7268H126.107C126.127 12.1237 127.089 12.891 128.268 12.891C129.388 12.891 129.859 12.3795 130.056 11.8679H133.258C132.688 13.9141 131.018 15.252 128.189 15.252ZM128.189 6.7918C126.991 6.7918 126.205 7.48042 126.127 8.77896H130.174C130.174 7.48042 129.407 6.7918 128.189 6.7918Z" fill="white"/>
<path d="M101.119 18.524H104.655V32.5916H101.119V18.524Z" fill="white"/>
<path d="M106.419 32.5916V22.5181H109.563V23.974H109.602C110.133 23.0493 111.115 22.2033 112.903 22.2033C114.848 22.2033 116.164 23.4821 116.164 25.7841V32.5916H113.021V26.7875C113.021 25.2725 112.49 24.761 111.449 24.761C110.251 24.761 109.563 25.3709 109.563 26.7678V32.5916H106.419Z" fill="white"/>
<path d="M116.723 22.5181H118.118V19.7045H121.261V22.5181H123.01V24.879H121.261V29.2469C121.261 30.329 121.674 30.4274 122.283 30.4274C122.578 30.4274 122.754 30.4077 123.128 30.3487V32.5719C122.46 32.7293 121.89 32.7884 121.261 32.7884C119.061 32.7884 118.118 31.7849 118.118 29.3256V24.879H116.723V22.5181Z" fill="white"/>
<path d="M128.78 32.9261C125.519 32.9261 123.554 30.7028 123.554 27.5548C123.554 24.6036 125.401 22.1836 128.78 22.1836C132.198 22.1836 133.927 24.2101 133.927 27.9287V28.4009H126.697C126.717 29.7978 127.68 30.5651 128.859 30.5651C129.978 30.5651 130.45 30.0535 130.646 29.542H133.849C133.279 31.5882 131.609 32.9261 128.78 32.9261ZM128.78 24.4659C127.582 24.4659 126.796 25.1545 126.717 26.453H130.764C130.764 25.1545 129.998 24.4659 128.78 24.4659Z" fill="white"/>
<path d="M134.992 22.5181H138.136V24.1707H138.175C138.666 23.1083 139.531 22.4394 140.631 22.4394C140.906 22.4394 141.142 22.4394 141.495 22.5181V25.2725C141.24 25.2332 141.063 25.2135 140.847 25.2135C139.433 25.2135 138.136 26.0989 138.136 27.909V32.5916H134.992V22.5181Z" fill="white"/>
<path d="M145.634 31.5882H145.595V36.0741H142.451V22.5181H145.595V23.5215H145.634C146.027 22.9903 147.088 22.2033 148.541 22.2033C151.213 22.2033 152.923 24.2494 152.923 27.5548C152.923 30.8602 151.213 32.9064 148.541 32.9064C147.088 32.9064 146.027 32.1194 145.634 31.5882ZM147.677 24.5642C146.4 24.5642 145.653 25.5873 145.653 27.5548C145.653 29.5223 146.4 30.5454 147.677 30.5454C148.954 30.5454 149.701 29.5223 149.701 27.5548C149.701 25.5873 148.954 24.5642 147.677 24.5642Z" fill="white"/>
<path d="M153.939 22.5181H157.082V24.1707H157.121C157.613 23.1083 158.477 22.4394 159.577 22.4394C159.852 22.4394 160.088 22.4394 160.442 22.5181V25.2725C160.186 25.2332 160.009 25.2135 159.793 25.2135C158.379 25.2135 157.082 26.0989 157.082 27.909V32.5916H153.939V22.5181Z" fill="white"/>
<path d="M165.771 32.9261C162.51 32.9261 160.545 30.7028 160.545 27.5548C160.545 24.6036 162.392 22.1836 165.771 22.1836C169.189 22.1836 170.918 24.2101 170.918 27.9287V28.4009H163.688C163.708 29.7978 164.671 30.5651 165.849 30.5651C166.969 30.5651 167.441 30.0535 167.637 29.542H170.84C170.27 31.5882 168.6 32.9261 165.771 32.9261ZM165.771 24.4659C164.572 24.4659 163.787 25.1545 163.708 26.453H167.755C167.755 25.1545 166.989 24.4659 165.771 24.4659Z" fill="white"/>
<path d="M171.106 22.5181H172.501V19.7045H175.644V22.5181H177.393V24.879H175.644V29.2469C175.644 30.329 176.057 30.4274 176.666 30.4274C176.961 30.4274 177.138 30.4077 177.511 30.3487V32.5719C176.843 32.7293 176.273 32.7884 175.644 32.7884C173.444 32.7884 172.501 31.7849 172.501 29.3256V24.879H171.106V22.5181Z" fill="white"/>
<path d="M183.163 32.9261C179.902 32.9261 177.937 30.7028 177.937 27.5548C177.937 24.6036 179.784 22.1836 183.163 22.1836C186.582 22.1836 188.31 24.2101 188.31 27.9287V28.4009H181.081C181.1 29.7978 182.063 30.5651 183.242 30.5651C184.362 30.5651 184.833 30.0535 185.03 29.542H188.232C187.662 31.5882 185.992 32.9261 183.163 32.9261ZM183.163 24.4659C181.965 24.4659 181.179 25.1545 181.1 26.453H185.147C185.147 25.1545 184.381 24.4659 183.163 24.4659Z" fill="white"/>
<path d="M189.376 22.5181H192.519V24.1707H192.558C193.05 23.1083 193.914 22.4394 195.014 22.4394C195.289 22.4394 195.525 22.4394 195.879 22.5181V25.2725C195.623 25.2332 195.446 25.2135 195.23 25.2135C193.816 25.2135 192.519 26.0989 192.519 27.909V32.5916H189.376V22.5181Z" fill="white"/>
<path d="M104.655 42.1793H110.294V45.0715H104.655V50.2657H101.119V36.1981H111.571V39.0903H104.655V42.1793Z" fill="white"/>
<path d="M116.667 50.6002C113.346 50.6002 111.323 48.4359 111.323 45.2486C111.323 42.0809 113.346 39.8577 116.725 39.8577C120.046 39.8577 122.069 42.0219 122.069 45.1895C122.069 48.3769 120.046 50.6002 116.667 50.6002ZM116.706 48.2392C118.101 48.2392 118.887 47.1767 118.887 45.2289C118.887 43.2811 118.101 42.2186 116.706 42.2186C115.291 42.2186 114.505 43.2811 114.505 45.2289C114.505 47.1767 115.291 48.2392 116.706 48.2392Z" fill="white"/>
<path d="M126.191 45.9962C126.191 47.5112 126.722 48.0227 127.763 48.0227C128.962 48.0227 129.649 47.4128 129.649 46.0159V40.1921H132.793V50.2657H129.649V48.8097H129.61C129.079 49.7345 128.097 50.5805 126.309 50.5805C124.364 50.5805 123.048 49.3016 123.048 46.9996V40.1921H126.191V45.9962Z" fill="white"/>
<path d="M134.364 50.2657V40.1921H137.507V41.6481H137.547C138.077 40.7233 139.059 39.8773 140.847 39.8773C142.792 39.8773 144.108 41.1562 144.108 43.4582V50.2657H140.965V44.4616C140.965 42.9466 140.435 42.4351 139.393 42.4351C138.195 42.4351 137.507 43.045 137.507 44.4419V50.2657H134.364Z" fill="white"/>
<path d="M152.384 41.1955H152.423V36.1981H155.567V50.2657H152.423V49.2623H152.384C151.991 49.7935 150.93 50.5805 149.476 50.5805C146.804 50.5805 145.095 48.5343 145.095 45.2289C145.095 41.9235 146.804 39.8773 149.476 39.8773C150.93 39.8773 151.991 40.6643 152.384 41.1955ZM150.341 48.2195C151.618 48.2195 152.364 47.1964 152.364 45.2289C152.364 43.2614 151.618 42.2383 150.341 42.2383C149.064 42.2383 148.317 43.2614 148.317 45.2289C148.317 47.1964 149.064 48.2195 150.341 48.2195Z" fill="white"/>
<path d="M159.746 50.5805C157.781 50.5805 156.543 49.4197 156.543 47.6292C156.543 45.5437 158.253 44.737 160.394 44.2845C161.494 44.0484 163.046 43.891 163.046 42.8876C163.046 42.3367 162.614 41.9825 161.71 41.9825C160.551 41.9825 160.021 42.4547 159.923 43.4385H156.936C157.035 41.5103 158.449 39.8577 161.848 39.8577C164.579 39.8577 166.092 40.9594 166.092 44.0484V47.944C166.092 48.4753 166.15 48.7114 166.465 48.7114C166.543 48.7114 166.602 48.7114 166.72 48.6917V50.187C166.092 50.305 165.443 50.3641 164.991 50.3641C163.734 50.3641 163.262 49.8919 163.105 49.0458H163.066C162.359 49.9312 161.2 50.5805 159.746 50.5805ZM161.062 48.4162C162.319 48.4162 163.046 47.3538 163.046 46.193V45.3469C162.634 45.5043 162.162 45.6224 161.337 45.8191C160.178 46.0946 159.765 46.5865 159.765 47.2948C159.765 48.0621 160.257 48.4162 161.062 48.4162Z" fill="white"/>
<path d="M166.664 40.1921H168.059V37.3786H171.203V40.1921H172.951V42.5531H171.203V46.9209C171.203 48.0031 171.615 48.1014 172.224 48.1014C172.519 48.1014 172.696 48.0818 173.069 48.0227V50.246C172.401 50.4034 171.831 50.4624 171.203 50.4624C169.002 50.4624 168.059 49.459 168.059 46.9996V42.5531H166.664V40.1921Z" fill="white"/>
<path d="M174.194 36.1981H177.338V38.992H174.194V36.1981ZM174.194 40.1921H177.338V50.2657H174.194V40.1921Z" fill="white"/>
<path d="M183.708 50.6002C180.388 50.6002 178.364 48.4359 178.364 45.2486C178.364 42.0809 180.388 39.8577 183.767 39.8577C187.087 39.8577 189.11 42.0219 189.11 45.1895C189.11 48.3769 187.087 50.6002 183.708 50.6002ZM183.747 48.2392C185.142 48.2392 185.928 47.1767 185.928 45.2289C185.928 43.2811 185.142 42.2186 183.747 42.2186C182.332 42.2186 181.547 43.2811 181.547 45.2289C181.547 47.1767 182.332 48.2392 183.747 48.2392Z" fill="white"/>
<path d="M190.129 50.2657V40.1921H193.272V41.6481H193.311C193.842 40.7233 194.824 39.8773 196.612 39.8773C198.557 39.8773 199.873 41.1562 199.873 43.4582V50.2657H196.73V44.4616C196.73 42.9466 196.199 42.4351 195.158 42.4351C193.96 42.4351 193.272 43.045 193.272 44.4419V50.2657H190.129Z" fill="white"/>
</svg>
